<svg width="3578" height="628" viewBox="0 0 3578 628" fill="none" xmlns="http://www.w3.org/2000/svg">
<g filter="url(#filter0_d)">
<rect x="14" y="10" width="3550" height="600" rx="45" stroke="#215280" stroke-width="20" stroke-linecap="round" stroke-linejoin="round"/>
</g>
<g clip-path="url(#clip0)" filter="url(#filter1_d)">
<path d="M544.763 375.702V352.055H494.272V375.702C478.663 384.714 469.044 401.359 469.027 419.375V554.014H570.008V419.375C569.991 401.359 560.373 384.714 544.763 375.702Z" fill="#87CED9"/>
<path d="M570.008 430.651C551.184 478.97 520.022 521.499 479.63 554.014H570.008V430.651Z" fill="#87CED9"/>
<path d="M536.348 419.375H469.028V520.355H536.348V419.375Z" fill="#4398D1"/>
<path d="M511.103 478.28H469.028V495.11H511.103V478.28Z" fill="#215280"/>
<path d="M511.103 444.62H469.028V461.45H511.103V444.62Z" fill="#215280"/>
<path d="M544.764 352.055H494.274V368.885H544.764V352.055Z" fill="#87CED9"/>
<path d="M564.094 156.034L575.994 144.133L491.858 59.998L479.958 71.8983L564.094 156.034Z" fill="#4398D1"/>
<path d="M460.613 217.416L547.54 130.489L505.465 87.6573L418.538 175.341L460.613 217.416Z" fill="#4398D1"/>
<path d="M87.914 560.002L180.498 467.418L168.598 455.517L76.0137 548.102L87.914 560.002Z" fill="#215280"/>
<path d="M191.328 486.711L225.006 453.033L182.938 410.965L149.26 444.644L191.328 486.711Z" fill="#215280"/>
<path d="M508.663 261.931L374.023 127.291L362.074 139.241L387.319 164.485L157.674 394.13L241.824 478.28L471.469 248.636L496.713 273.881L508.663 261.931Z" fill="#87CED9"/>
<path d="M203.452 439.908L241.824 478.28L471.469 248.636L496.713 273.881L508.663 261.931L445.045 198.313L203.452 439.908Z" fill="#6EC1D4"/>
<path d="M561.592 318.396H477.443V352.056H561.592V318.396Z" fill="#4398D1"/>
<path d="M561.593 318.396H527.933V352.056H561.593V318.396Z" fill="#3E8CC7"/>
<path d="M219.069 400.06L230.97 388.16L197.291 354.482L185.391 366.382L219.069 400.06Z" fill="#4398D1"/>
<path d="M244.257 358.013L256.158 346.112L230.929 320.884L219.029 332.784L244.257 358.013Z" fill="#4398D1"/>
<path d="M286.425 332.795L298.326 320.895L264.647 287.217L252.747 299.117L286.425 332.795Z" fill="#4398D1"/>
<path d="M311.537 290.634L323.437 278.733L298.209 253.505L286.308 265.405L311.537 290.634Z" fill="#4398D1"/>
<path d="M353.721 265.445L365.621 253.545L331.943 219.867L320.043 231.767L353.721 265.445Z" fill="#4398D1"/>
<path d="M378.874 223.392L390.774 211.492L365.545 186.263L353.645 198.164L378.874 223.392Z" fill="#4398D1"/>
</g>
<g filter="url(#filter2_d)">
<path d="M890.238 397.752C890.238 396.45 892.68 388.882 897.562 375.047C902.445 361.212 906.758 348.842 910.502 337.938C914.408 327.033 918.314 315.802 922.221 304.246C926.29 292.69 930.196 281.134 933.939 269.578C937.846 258.022 941.264 247.28 944.193 237.352C951.029 215.053 954.447 201.056 954.447 195.359C954.447 189.5 953.389 185.431 951.273 183.152C949.32 180.711 946.798 179.002 943.705 178.025C940.613 177.049 937.276 176.154 933.695 175.34C930.115 174.526 926.778 172.898 923.686 170.457V155.076H1019.88V170.457C1017.27 172.085 1014.42 173.468 1011.33 174.607C1008.24 175.747 1005.07 177.13 1001.81 178.758C994.324 182.827 988.952 189.419 985.697 198.533L902.201 439.256L890.238 397.752ZM893.656 463.914L878.52 507.615H848.49L743.754 191.941C740.987 184.129 733.907 178.432 722.514 174.852C719.258 173.712 715.922 172.247 712.504 170.457V155.076H838.48V170.457C834.411 172.085 830.424 173.387 826.518 174.363C822.611 175.34 819.193 176.479 816.264 177.781C809.428 180.385 806.01 184.129 806.01 189.012C806.01 193.732 806.905 198.615 808.695 203.66C810.648 208.706 812.683 214.484 814.799 220.994L893.656 463.914ZM1105.81 377.488C1062.19 393.276 1040.38 416.307 1040.38 446.58C1040.38 458.787 1043.31 468.634 1049.17 476.121C1055.03 483.445 1063.74 487.107 1075.3 487.107C1087.02 487.107 1097.19 482.794 1105.81 474.168V497.361C1093.28 504.848 1079.12 508.592 1063.33 508.592C1047.55 508.592 1034.85 507.046 1025.25 503.953C1015.81 500.861 1007.83 496.629 1001.32 491.258C987.813 480.353 981.059 465.949 981.059 448.045C981.059 411.098 1013.85 383.185 1079.45 364.305C1088.72 361.538 1097.51 359.096 1105.81 356.98V377.488ZM1047.95 290.086C1056.9 293.504 1061.38 301.316 1061.38 313.523C1061.38 321.336 1058.61 327.602 1053.08 332.322C1047.55 337.042 1040.06 339.402 1030.62 339.402C1021.34 339.402 1013.94 336.88 1008.4 331.834C1003.03 326.788 1000.35 320.278 1000.35 312.303C1000.35 304.327 1002.22 297.166 1005.96 290.818C1009.7 284.471 1014.99 278.855 1021.83 273.973C1035.99 263.719 1053.81 257.778 1075.3 256.15V274.705C1062.11 276.007 1053 281.134 1047.95 290.086ZM1193.22 477.83C1202.17 477.83 1207.87 469.692 1210.31 453.416L1222.76 460.008C1221.13 475.796 1216.74 487.84 1209.57 496.141C1202.58 504.441 1191.35 508.592 1175.88 508.592C1163.84 508.592 1154.89 506.395 1149.03 502C1139.59 494.839 1131.94 484.015 1126.08 469.529V317.43C1126.08 307.339 1123.39 298.631 1118.02 291.307C1112.81 283.82 1105.33 278.774 1095.56 276.17V256.15C1150.74 259.08 1178.32 288.214 1178.32 343.553V459.031C1178.32 471.564 1183.29 477.83 1193.22 477.83ZM1400.98 295.457C1396.42 284.227 1386.25 277.798 1370.46 276.17V256.395C1392.11 257.534 1409.36 264.695 1422.22 277.879C1433.45 289.109 1439.07 302.049 1439.07 316.697C1439.07 331.671 1433.29 341.844 1421.73 347.215C1417.83 349.005 1412.54 349.9 1405.86 349.9C1399.19 349.9 1393.17 347.459 1387.8 342.576C1382.59 337.531 1379.98 331.753 1379.98 325.242C1379.98 318.732 1380.72 313.93 1382.18 310.838C1383.65 307.745 1385.44 305.223 1387.55 303.27C1389.67 301.316 1391.95 299.77 1394.39 298.631C1396.83 297.492 1399.03 296.434 1400.98 295.457ZM1370.46 486.375C1390.32 483.445 1404.97 470.913 1414.41 448.777C1417.18 442.592 1419.62 436.326 1421.73 429.979L1442 436.082C1432.88 467.495 1417.99 488.491 1397.32 499.07C1389.67 503.139 1380.72 505.906 1370.46 507.371V486.375ZM1299.17 381.883C1299.17 445.685 1316.18 480.516 1350.2 486.375V508.592C1319.44 507.941 1293.8 496.954 1273.29 475.633C1251.65 452.684 1240.82 422.329 1240.82 384.568C1240.82 351.202 1250.92 322.231 1271.1 297.654C1291.93 272.264 1318.3 258.429 1350.2 256.15V277.635C1325.79 283.331 1310 304.002 1302.84 339.646C1300.39 351.854 1299.17 365.932 1299.17 381.883ZM1637.31 295.457C1632.75 284.227 1622.58 277.798 1606.79 276.17V256.395C1628.44 257.534 1645.69 264.695 1658.55 277.879C1669.78 289.109 1675.39 302.049 1675.39 316.697C1675.39 331.671 1669.62 341.844 1658.06 347.215C1654.15 349.005 1648.86 349.9 1642.19 349.9C1635.52 349.9 1629.5 347.459 1624.12 342.576C1618.92 337.531 1616.31 331.753 1616.31 325.242C1616.31 318.732 1617.04 313.93 1618.51 310.838C1619.97 307.745 1621.76 305.223 1623.88 303.27C1626 301.316 1628.28 299.77 1630.72 298.631C1633.16 297.492 1635.36 296.434 1637.31 295.457ZM1606.79 486.375C1626.65 483.445 1641.3 470.913 1650.74 448.777C1653.5 442.592 1655.94 436.326 1658.06 429.979L1678.32 436.082C1669.21 467.495 1654.32 488.491 1633.65 499.07C1626 503.139 1617.04 505.906 1606.79 507.371V486.375ZM1535.5 381.883C1535.5 445.685 1552.51 480.516 1586.53 486.375V508.592C1555.77 507.941 1530.13 496.954 1509.62 475.633C1487.98 452.684 1477.15 422.329 1477.15 384.568C1477.15 351.202 1487.24 322.231 1507.43 297.654C1528.26 272.264 1554.63 258.429 1586.53 256.15V277.635C1562.11 283.331 1546.33 304.002 1539.16 339.646C1536.72 351.854 1535.5 365.932 1535.5 381.883ZM1802.84 259.568V463.426C1802.84 471.076 1806.17 476.609 1812.85 480.027C1815.94 481.655 1819.27 483.12 1822.86 484.422C1826.44 485.561 1829.94 487.107 1833.35 489.061V502H1719.83V489.061C1723.25 487.107 1726.75 485.561 1730.33 484.422C1734.07 483.12 1737.49 481.655 1740.58 480.027C1747.42 476.609 1750.83 471.076 1750.83 463.426V300.096C1750.83 291.469 1747.58 285.529 1741.07 282.273C1738.14 280.809 1734.8 279.669 1731.06 278.855C1727.32 277.879 1723.57 276.414 1719.83 274.461V261.033L1802.84 259.568ZM1741.8 183.885C1741.8 174.445 1744.81 166.876 1750.83 161.18C1756.86 155.32 1763.37 152.391 1770.37 152.391C1777.53 152.391 1783.06 153.204 1786.97 154.832C1791.04 156.297 1794.54 158.413 1797.46 161.18C1803.65 167.039 1806.74 174.607 1806.74 183.885C1806.74 192.999 1803.65 200.486 1797.46 206.346C1791.44 212.042 1783.63 214.891 1774.03 214.891C1764.59 214.891 1756.86 212.042 1750.83 206.346C1744.81 200.649 1741.8 193.162 1741.8 183.885ZM2009.13 282.029C1995.63 282.029 1983.26 287.319 1972.03 297.898V271.287C1986.35 261.033 2003.19 255.906 2022.56 255.906C2045.02 255.906 2063.17 261.766 2077.01 273.484C2091.17 285.691 2098.25 302.863 2098.25 324.998V453.416C2098.25 468.878 2101.42 477.911 2107.77 480.516C2109.72 481.329 2111.84 481.98 2114.12 482.469C2120.3 484.096 2125.1 486.294 2128.52 489.061V502H2034.04V485.398C2034.04 482.306 2035.42 479.458 2038.19 476.854C2040.95 474.249 2042.99 472.052 2044.29 470.262C2045.59 468.309 2046.24 465.542 2046.24 461.961V322.557C2046.24 295.538 2033.87 282.029 2009.13 282.029ZM1951.76 452.439C1951.76 467.739 1955.02 476.935 1961.53 480.027C1963.48 480.841 1965.6 481.655 1967.88 482.469C1974.55 484.585 1979.43 486.782 1982.52 489.061V502H1868.75V489.061C1871.68 486.782 1875.35 484.91 1879.74 483.445C1884.3 481.98 1887.55 480.841 1889.51 480.027C1891.62 479.214 1893.41 477.749 1894.88 475.633C1897.97 471.401 1899.52 463.833 1899.52 452.928V312.059C1899.52 295.945 1896.34 286.587 1889.99 283.982C1888.04 283.169 1885.93 282.436 1883.65 281.785C1876.49 280.158 1871.36 278.204 1868.27 275.926V261.033H1951.76V452.439ZM2317.24 356.492C2317.24 309.617 2305.52 283.25 2282.08 277.391V256.395C2312.52 259.161 2335.96 271.938 2352.4 294.725C2367.86 316.046 2375.59 343.797 2375.59 377.977H2237.41V356.492H2317.24ZM2283.06 487.107C2311.38 485.805 2331.48 472.459 2343.36 447.068C2346.78 439.744 2349.71 432.257 2352.15 424.607L2373.15 432.42C2364.03 466.437 2345.4 489.305 2317.24 501.023C2307.31 505.092 2295.92 507.534 2283.06 508.348V487.107ZM2216.9 366.99C2216.9 436.977 2232.2 476.365 2262.8 485.154V507.615C2230.9 504.035 2205.59 490.77 2186.87 467.82C2168.15 445.197 2158.79 416.795 2158.79 382.615C2158.79 346.645 2168.15 317.104 2186.87 293.992C2205.75 270.717 2230.73 258.104 2261.82 256.15V276.414C2231.87 279.995 2216.9 310.187 2216.9 366.99ZM2637.8 209.031C2637.8 196.987 2636.58 189.256 2634.13 185.838C2631.69 182.257 2629.41 179.979 2627.3 179.002C2625.18 178.025 2622.9 177.13 2620.46 176.316C2612.49 174.038 2606.87 171.759 2603.62 169.48V155.076H2731.79V169.48C2727.4 171.434 2723.16 172.98 2719.1 174.119C2715.19 175.258 2711.69 176.723 2708.6 178.514C2701.92 182.42 2698.59 189.581 2698.59 199.998V457.078C2698.59 467.495 2701.92 474.656 2708.6 478.562C2711.69 480.353 2715.19 481.818 2719.1 482.957C2723.16 484.096 2727.4 485.643 2731.79 487.596V502H2603.62V487.596C2622.5 484.992 2633.4 476.284 2636.33 461.473C2637.31 456.59 2637.8 450.893 2637.8 444.383V209.031ZM2511.33 446.58C2511.33 464.321 2514.75 474.982 2521.59 478.562C2523.86 479.539 2527.61 480.841 2532.82 482.469C2538.19 483.934 2542.42 485.643 2545.51 487.596V502H2417.58V487.596C2421.98 485.643 2426.13 484.096 2430.03 482.957C2433.94 481.818 2437.44 480.353 2440.53 478.562C2447.2 474.656 2450.54 467.495 2450.54 457.078V199.998C2450.54 189.581 2447.2 182.42 2440.53 178.514C2437.44 176.723 2433.94 175.258 2430.03 174.119C2426.13 172.98 2421.98 171.434 2417.58 169.48V155.076H2545.51V169.48C2541.77 171.922 2537.29 173.875 2532.08 175.34C2526.88 176.805 2523.21 178.107 2521.1 179.246C2519.14 180.223 2517.44 181.932 2515.97 184.373C2512.88 189.581 2511.33 198.615 2511.33 211.473V446.58ZM2617.53 332.566H2531.6V310.105H2617.53V332.566ZM2883.4 482.469C2896.75 482.469 2908.79 477.26 2919.54 466.844V494.92C2904.89 504.035 2886.82 508.592 2865.34 508.592C2829.85 508.592 2807.8 496.141 2799.17 471.238C2796.24 462.612 2794.78 452.195 2794.78 439.988V301.561C2794.78 293.097 2791.61 287.156 2785.26 283.738C2782.49 282.273 2779.4 281.134 2775.98 280.32C2772.56 279.344 2769.31 277.879 2766.21 275.926V261.033H2847.03V444.383C2847.03 469.773 2859.15 482.469 2883.4 482.469ZM2939.8 301.561C2939.8 292.934 2936.54 286.993 2930.03 283.738C2927.1 282.273 2923.85 281.134 2920.27 280.32C2916.69 279.344 2913.11 277.879 2909.53 275.926V261.033H2991.8V461.961C2991.8 470.424 2995.14 476.284 3001.81 479.539C3004.74 481.004 3007.91 482.225 3011.33 483.201C3014.75 484.178 3018.01 485.643 3021.1 487.596V502H2943.22L2939.8 476.121V301.561ZM3193.71 282.029C3180.2 282.029 3167.83 287.319 3156.6 297.898V271.287C3170.92 261.033 3187.76 255.906 3207.13 255.906C3229.59 255.906 3247.74 261.766 3261.58 273.484C3275.74 285.691 3282.82 302.863 3282.82 324.998V453.416C3282.82 468.878 3285.99 477.911 3292.34 480.516C3294.29 481.329 3296.41 481.98 3298.69 482.469C3304.87 484.096 3309.67 486.294 3313.09 489.061V502H3218.61V485.398C3218.61 482.306 3219.99 479.458 3222.76 476.854C3225.52 474.249 3227.56 472.052 3228.86 470.262C3230.16 468.309 3230.81 465.542 3230.81 461.961V322.557C3230.81 295.538 3218.44 282.029 3193.71 282.029ZM3136.33 452.439C3136.33 467.739 3139.59 476.935 3146.1 480.027C3148.05 480.841 3150.17 481.655 3152.45 482.469C3159.12 484.585 3164 486.782 3167.09 489.061V502H3053.32V489.061C3056.25 486.782 3059.92 484.91 3064.31 483.445C3068.87 481.98 3072.12 480.841 3074.08 480.027C3076.19 479.214 3077.98 477.749 3079.45 475.633C3082.54 471.401 3084.09 463.833 3084.09 452.928V312.059C3084.09 295.945 3080.91 286.587 3074.56 283.982C3072.61 283.169 3070.5 282.436 3068.22 281.785C3061.06 280.158 3055.93 278.204 3052.84 275.926V261.033H3136.33V452.439ZM3441.51 265.428H3481.55V286.912H3441.51V265.428ZM3421.24 508.348C3393.09 507.046 3376.49 494.513 3371.44 470.75C3369.81 463.263 3369 454.881 3369 445.604V286.912H3336.04V272.02C3338.48 269.904 3341.08 268.195 3343.85 266.893C3346.78 265.428 3349.63 264.044 3352.4 262.742C3359.56 259.161 3364.77 254.848 3368.02 249.803C3371.28 244.594 3373.96 239.061 3376.08 233.201C3378.36 227.179 3380.23 221.238 3381.69 215.379C3383.32 209.357 3384.79 203.497 3386.09 197.801C3387.55 192.104 3389.34 186.489 3391.46 180.955L3421.24 179.49V508.348ZM3441.51 486.131C3453.71 486.131 3463.24 477.423 3470.07 460.008C3472.19 454.637 3474.22 448.777 3476.18 442.43L3491.8 446.092C3487.41 475.226 3477.4 493.862 3461.77 502C3456.07 504.93 3449.32 506.883 3441.51 507.859V486.131Z" fill="#215280"/>
</g>
<defs>
<filter id="filter0_d" x="0" y="0" width="3578" height="628" filterUnits="userSpaceOnUse" color-interpolation-filters="sRGB">
<feFlood flood-opacity="0" result="BackgroundImageFix"/>
<feColorMatrix in="SourceAlpha" type="matrix" values="0 0 0 0 0 0 0 0 0 0 0 0 0 0 0 0 0 0 127 0"/>
<feOffset dy="4"/>
<feGaussianBlur stdDeviation="2"/>
<feColorMatrix type="matrix" values="0 0 0 0 0 0 0 0 0 0 0 0 0 0 0 0 0 0 0.25 0"/>
<feBlend mode="normal" in2="BackgroundImageFix" result="effect1_dropShadow"/>
<feBlend mode="normal" in="SourceGraphic" in2="effect1_dropShadow" result="shape"/>
</filter>
<filter id="filter1_d" x="72" y="60" width="508" height="508" filterUnits="userSpaceOnUse" color-interpolation-filters="sRGB">
<feFlood flood-opacity="0" result="BackgroundImageFix"/>
<feColorMatrix in="SourceAlpha" type="matrix" values="0 0 0 0 0 0 0 0 0 0 0 0 0 0 0 0 0 0 127 0"/>
<feOffset dy="4"/>
<feGaussianBlur stdDeviation="2"/>
<feColorMatrix type="matrix" values="0 0 0 0 0 0 0 0 0 0 0 0 0 0 0 0 0 0 0.25 0"/>
<feBlend mode="normal" in2="BackgroundImageFix" result="effect1_dropShadow"/>
<feBlend mode="normal" in="SourceGraphic" in2="effect1_dropShadow" result="shape"/>
</filter>
<filter id="filter2_d" x="708.504" y="152.391" width="2787.3" height="364.201" filterUnits="userSpaceOnUse" color-interpolation-filters="sRGB">
<feFlood flood-opacity="0" result="BackgroundImageFix"/>
<feColorMatrix in="SourceAlpha" type="matrix" values="0 0 0 0 0 0 0 0 0 0 0 0 0 0 0 0 0 0 127 0"/>
<feOffset dy="4"/>
<feGaussianBlur stdDeviation="2"/>
<feColorMatrix type="matrix" values="0 0 0 0 0 0 0 0 0 0 0 0 0 0 0 0 0 0 0.25 0"/>
<feBlend mode="normal" in2="BackgroundImageFix" result="effect1_dropShadow"/>
<feBlend mode="normal" in="SourceGraphic" in2="effect1_dropShadow" result="shape"/>
</filter>
<clipPath id="clip0">
<rect width="500" height="500" fill="white" transform="translate(76 60)"/>
</clipPath>
</defs>
</svg>
